<svg width="221" height="186" viewBox="0 0 221 186" fill="none" xmlns="http://www.w3.org/2000/svg">
<ellipse cx="30.4781" cy="91.0273" rx="16.546" ry="16.6186" fill="#A8A7CB"/>
<ellipse cx="36.0661" cy="71.651" rx="12.5547" ry="16.546" fill="#B0AFC7"/>
<ellipse cx="48.6207" cy="88.2697" rx="16.546" ry="16.6186" fill="#AAA9D9"/>
<ellipse cx="57.9097" cy="60.4027" rx="21.9162" ry="20.9728" fill="#A1A0CF"/>
<ellipse cx="49.0561" cy="47.1947" rx="19.8842" ry="20.9728" fill="#B7B7D0"/>
<ellipse cx="96.2267" cy="107.573" rx="16.546" ry="16.6186" fill="#7A79A7"/>
<ellipse cx="97.8959" cy="86.6005" rx="12.5547" ry="16.546" fill="#8A89B4"/>
<ellipse cx="110.451" cy="103.219" rx="16.546" ry="16.6186" fill="#908FBD"/>
<ellipse cx="119.74" cy="75.3522" rx="21.9162" ry="20.9728" fill="#8382B5"/>
<ellipse cx="110.886" cy="62.1444" rx="19.8842" ry="20.9728" fill="#9897C4"/>
<ellipse cx="152.614" cy="27.746" rx="28.5201" ry="20.9728" fill="#9897C4"/>
<ellipse cx="176.199" cy="23.1017" rx="19.8842" ry="20.9728" fill="#B6B5DE"/>
<ellipse cx="85.4138" cy="48.0657" rx="25.4722" ry="24.8916" fill="#9F9EC1"/>
<ellipse cx="116.474" cy="35.5837" rx="25.4722" ry="24.8916" fill="#A09FBF"/>
<path d="M198.317 54.8147C198.317 65.1684 195.562 68.557 192.165 72.0864C190.609 73.7026 189.372 75.0346 185.561 77.7469C180.844 74.191 179.537 72.667 177.578 70.8527C173.877 66.0631 170.829 62.037 170.829 52.7102C170.829 38.9629 178.488 27.8186 187.936 27.8186C197.384 27.8186 198.317 41.0675 198.317 54.8147Z" fill="#9B9ABB"/>
<path d="M190.205 45.7434C184.617 51.2588 185.996 49.0389 179.537 57.0644C171.627 65.9179 172.153 69.3585 168.071 69.4013C163.129 69.4532 166.184 61.0557 163.499 59.9672C153.702 64.0311 147.421 76.1093 147.421 62.362C147.421 48.6148 155.196 24.9158 169.264 24.9158C183.332 24.9158 197.753 36.8899 190.205 45.7434Z" fill="#9190BA"/>
<ellipse cx="77.3585" cy="19.9084" rx="28.7378" ry="19.5214" fill="#BEBED1"/>
<ellipse cx="195.503" cy="30.2135" rx="24.6739" ry="19.5214" fill="#A6A5D6"/>
<path d="M13.8596 97.4861H66.3279C66.3279 97.4861 66.3279 117.225 69.9564 141.536C72.5992 159.243 79.6808 185.296 79.6808 185.296H0.28894C0.28894 185.296 8.94077 159.008 11.0293 141.536C13.6578 119.547 13.8596 97.4861 13.8596 97.4861Z" fill="url(#paint0_linear_8_46)"/>
<rect x="11.6099" y="97.4861" width="57.1853" height="4.06393" rx="2.03197" fill="#797979"/>
<rect x="9.43274" y="130.868" width="61.2493" height="4.06393" rx="2.03197" fill="#8C8C8C"/>
<path d="M78.0427 107.646H127.825C127.825 107.646 127.825 125.101 131.268 146.599C133.776 162.258 140.495 185.296 140.495 185.296H65.1667C65.1667 185.296 73.3756 162.05 75.3573 146.599C77.8512 127.155 78.0427 107.646 78.0427 107.646Z" fill="url(#paint1_linear_8_46)"/>
<rect x="75.7704" y="107.646" width="54.2581" height="3.59373" rx="1.79686" fill="#797979"/>
<rect x="75.762" y="134.932" width="54.2581" height="3.59373" rx="1.79686" fill="#9D9D9D"/>
<rect x="146.01" y="64.1038" width="8.99871" height="80.9884" fill="#9AABB7"/>
<rect x="163.572" y="64.1038" width="8.99871" height="80.9884" fill="#667783"/>
<rect x="181.134" y="74.1184" width="8.99871" height="80.9884" fill="#6D7D89"/>
<path d="M112.939 137.801L131.059 129.852L195.213 129.852V185.006H96.6622V144.722L112.939 137.801Z" fill="url(#paint2_linear_8_46)"/>
<defs>
<linearGradient id="paint0_linear_8_46" x1="7.83625" y1="107.21" x2="64.7313" y2="171.145" gradientUnits="userSpaceOnUse">
<stop stop-color="#D4D4D5"/>
<stop offset="0.9999" stop-color="#3F474E"/>
</linearGradient>
<linearGradient id="paint1_linear_8_46" x1="55.3892" y1="124.01" x2="130.247" y2="190.479" gradientUnits="userSpaceOnUse">
<stop offset="0.0274127" stop-color="#A0A4A6"/>
<stop offset="0.951567" stop-color="#0A121A"/>
</linearGradient>
<linearGradient id="paint2_linear_8_46" x1="106.242" y1="137.4" x2="195.213" y2="185.006" gradientUnits="userSpaceOnUse">
<stop stop-color="#C3CCD2"/>
<stop offset="1" stop-color="#2D4353"/>
</linearGradient>
</defs>
</svg>
