<svg width="316" height="138" viewBox="0 0 316 138" fill="none" xmlns="http://www.w3.org/2000/svg">
<path d="M83.608 93.64C80.1947 93.64 77.592 92.68 75.8 90.76C74.008 88.7973 73.112 86.0027 73.112 82.376V58.824C73.112 55.1973 74.008 52.424 75.8 50.504C77.592 48.5413 80.1947 47.56 83.608 47.56C87.0213 47.56 89.624 48.5413 91.416 50.504C93.208 52.424 94.104 55.1973 94.104 58.824V62.664H87.448V58.376C87.448 55.432 86.232 53.96 83.8 53.96C81.368 53.96 80.152 55.432 80.152 58.376V82.888C80.152 85.7893 81.368 87.24 83.8 87.24C86.232 87.24 87.448 85.7893 87.448 82.888V74.12H83.928V67.72H94.104V82.376C94.104 86.0027 93.208 88.7973 91.416 90.76C89.624 92.68 87.0213 93.64 83.608 93.64ZM98.624 48.2H109.056C112.683 48.2 115.328 49.0533 116.992 50.76C118.656 52.424 119.488 55.0053 119.488 58.504V61.256C119.488 65.9067 117.952 68.8507 114.88 70.088V70.216C116.587 70.728 117.781 71.7733 118.464 73.352C119.189 74.9307 119.552 77.0427 119.552 79.688V87.56C119.552 88.84 119.595 89.8853 119.68 90.696C119.765 91.464 119.979 92.232 120.32 93H113.152C112.896 92.2747 112.725 91.592 112.64 90.952C112.555 90.312 112.512 89.16 112.512 87.496V79.304C112.512 77.256 112.171 75.8267 111.488 75.016C110.848 74.2053 109.717 73.8 108.096 73.8H105.664V93H98.624V48.2ZM108.224 67.4C109.632 67.4 110.677 67.0373 111.36 66.312C112.085 65.5867 112.448 64.3707 112.448 62.664V59.208C112.448 57.5867 112.149 56.4133 111.552 55.688C110.997 54.9627 110.101 54.6 108.864 54.6H105.664V67.4H108.224ZM134.613 93.64C131.157 93.64 128.511 92.6587 126.677 90.696C124.842 88.7333 123.924 85.96 123.924 82.376V58.824C123.924 55.24 124.842 52.4667 126.677 50.504C128.511 48.5413 131.157 47.56 134.613 47.56C138.069 47.56 140.714 48.5413 142.549 50.504C144.383 52.4667 145.301 55.24 145.301 58.824V82.376C145.301 85.96 144.383 88.7333 142.549 90.696C140.714 92.6587 138.069 93.64 134.613 93.64ZM134.613 87.24C137.045 87.24 138.26 85.768 138.26 82.824V58.376C138.26 55.432 137.045 53.96 134.613 53.96C132.181 53.96 130.965 55.432 130.965 58.376V82.824C130.965 85.768 132.181 87.24 134.613 87.24ZM160.302 93.64C156.888 93.64 154.286 92.68 152.494 90.76C150.702 88.7973 149.806 86.0027 149.806 82.376V48.2H156.845V82.888C156.845 84.424 157.144 85.5333 157.742 86.216C158.382 86.8987 159.278 87.24 160.43 87.24C161.582 87.24 162.456 86.8987 163.054 86.216C163.694 85.5333 164.014 84.424 164.014 82.888V48.2H170.798V82.376C170.798 86.0027 169.902 88.7973 168.11 90.76C166.318 92.68 163.715 93.64 160.302 93.64ZM175.812 48.2H186.18C189.678 48.2 192.302 49.1387 194.052 51.016C195.801 52.8933 196.676 55.6453 196.676 59.272V63.688C196.676 67.3147 195.801 70.0667 194.052 71.944C192.302 73.8213 189.678 74.76 186.18 74.76H182.852V93H175.812V48.2ZM186.18 68.36C187.332 68.36 188.185 68.04 188.74 67.4C189.337 66.76 189.635 65.672 189.635 64.136V58.824C189.635 57.288 189.337 56.2 188.74 55.56C188.185 54.92 187.332 54.6 186.18 54.6H182.852V68.36H186.18ZM210.621 88.136C210.621 84.936 211.133 82.2053 212.157 79.944C213.181 77.64 215.016 75.1013 217.661 72.328C220.264 69.5547 222.056 67.1867 223.037 65.224C224.061 63.2613 224.573 61.2133 224.573 59.08C224.573 57.16 224.253 55.8373 223.613 55.112C223.016 54.344 222.12 53.96 220.925 53.96C218.493 53.96 217.277 55.432 217.277 58.376V63.176H210.621V58.824C210.621 55.1973 211.517 52.424 213.309 50.504C215.101 48.5413 217.704 47.56 221.117 47.56C224.53 47.56 227.133 48.5413 228.925 50.504C230.717 52.424 231.613 55.1973 231.613 58.824C231.613 61.5547 230.952 64.2213 229.629 66.824C228.349 69.4267 226.109 72.4133 222.909 75.784C220.818 78.0027 219.41 79.816 218.685 81.224C217.96 82.5893 217.597 84.0613 217.597 85.64V86.6H230.973V93H210.621V88.136Z" fill="#DAE7F4"/>
<path d="M279 65C274 64 269 67.4286 260.5 73.5C253.5 78.5 249 72.5 245 78.5C245 73.2533 251.5 57 264 57C270 57 279 59.7533 279 65Z" fill="#7DB678"/>
<path d="M281.5 64.5C282.518 59.4796 288.682 57.6507 298.32 52.6402C306.257 48.514 301.984 41.6827 309.718 40.7502C304.379 38.3708 285.195 36.937 280.106 48.3544C277.664 53.8348 276.161 62.1206 281.5 64.5Z" fill="#7DB678"/>
<path d="M284.5 78C284.5 83.432 284.546 92.4646 283 96C281 98 279 97 278 96.5C276.343 96.5 281 87.3888 281 78C281 68.6112 276.343 61 278 61C279.657 61 284.5 68.6112 284.5 78Z" fill="#579052"/>
<path d="M39.544 0.74267L51.9388 24.803L48.2643 26.3835L39.544 0.74267Z" fill="#DAE7F4"/>
<path d="M34.1394 48.1102L48.7236 26.1859L51.9438 28.6109L34.1394 48.1102Z" fill="#DAE7F4"/>
<path d="M77.2281 29.8039L51.0252 29.0061L51.4795 25.0006L77.2281 29.8039Z" fill="#DAE7F4"/>
<circle cx="51.0893" cy="27.8898" r="3.5" transform="rotate(-23.2732 51.0893 27.8898)" fill="#DAE7F4"/>
<path d="M49.3814 25.8481H53.6469L55.698 119H47.0164L49.3814 25.8481Z" fill="url(#paint0_linear_45_26)"/>
<path d="M1.61399 3.21954L20.5548 22.5529L17.51 25.147L1.61399 3.21954Z" fill="#DAE7F4"/>
<path d="M10.4226 50.0736L17.8905 24.8227L21.6827 26.1899L10.4226 50.0736Z" fill="#DAE7F4"/>
<path d="M46.1939 19.8714L20.9216 26.8386L20.1742 22.8772L46.1939 19.8714Z" fill="#DAE7F4"/>
<circle cx="20.6537" cy="25.7529" r="3.5" transform="rotate(-40.4299 20.6537 25.7529)" fill="#DAE7F4"/>
<path d="M19.1523 25.8481H23.4177L25.4689 119H16.7872L19.1523 25.8481Z" fill="url(#paint1_linear_45_26)"/>
<defs>
<linearGradient id="paint0_linear_45_26" x1="51.3572" y1="25.8481" x2="51.3572" y2="119" gradientUnits="userSpaceOnUse">
<stop stop-color="#DBE8F4"/>
<stop offset="1" stop-color="#648099"/>
</linearGradient>
<linearGradient id="paint1_linear_45_26" x1="21.1281" y1="25.8481" x2="21.1281" y2="119" gradientUnits="userSpaceOnUse">
<stop stop-color="#DBE8F4"/>
<stop offset="1" stop-color="#648099"/>
</linearGradient>
</defs>
</svg>
