<svg width="538" height="152" viewBox="0 0 538 152" fill="none" xmlns="http://www.w3.org/2000/svg">
<path d="M112.216 116.28C105.389 116.28 100.184 114.36 96.6 110.52C93.016 106.595 91.224 101.005 91.224 93.752V46.648C91.224 39.3947 93.016 33.848 96.6 30.008C100.184 26.0827 105.389 24.12 112.216 24.12C119.043 24.12 124.248 26.0827 127.832 30.008C131.416 33.848 133.208 39.3947 133.208 46.648V54.328H119.896V45.752C119.896 39.864 117.464 36.92 112.6 36.92C107.736 36.92 105.304 39.864 105.304 45.752V94.776C105.304 100.579 107.736 103.48 112.6 103.48C117.464 103.48 119.896 100.579 119.896 94.776V77.24H112.856V64.44H133.208V93.752C133.208 101.005 131.416 106.595 127.832 110.52C124.248 114.36 119.043 116.28 112.216 116.28ZM142.248 25.4H163.112C170.365 25.4 175.656 27.1067 178.984 30.52C182.312 33.848 183.976 39.0107 183.976 46.008V51.512C183.976 60.8133 180.904 66.7013 174.76 69.176V69.432C178.173 70.456 180.563 72.5467 181.928 75.704C183.379 78.8613 184.104 83.0853 184.104 88.376V104.12C184.104 106.68 184.189 108.771 184.36 110.392C184.531 111.928 184.957 113.464 185.64 115H171.304C170.792 113.549 170.451 112.184 170.28 110.904C170.109 109.624 170.024 107.32 170.024 103.992V87.608C170.024 83.512 169.341 80.6533 167.976 79.032C166.696 77.4107 164.435 76.6 161.192 76.6H156.328V115H142.248V25.4ZM161.448 63.8C164.264 63.8 166.355 63.0747 167.72 61.624C169.171 60.1733 169.896 57.7413 169.896 54.328V47.416C169.896 44.1733 169.299 41.8267 168.104 40.376C166.995 38.9253 165.203 38.2 162.728 38.2H156.328V63.8H161.448ZM214.225 116.28C207.313 116.28 202.022 114.317 198.353 110.392C194.684 106.467 192.849 100.92 192.849 93.752V46.648C192.849 39.48 194.684 33.9333 198.353 30.008C202.022 26.0827 207.313 24.12 214.225 24.12C221.137 24.12 226.428 26.0827 230.097 30.008C233.766 33.9333 235.601 39.48 235.601 46.648V93.752C235.601 100.92 233.766 106.467 230.097 110.392C226.428 114.317 221.137 116.28 214.225 116.28ZM214.225 103.48C219.089 103.48 221.521 100.536 221.521 94.648V45.752C221.521 39.864 219.089 36.92 214.225 36.92C209.361 36.92 206.929 39.864 206.929 45.752V94.648C206.929 100.536 209.361 103.48 214.225 103.48ZM265.603 116.28C258.776 116.28 253.571 114.36 249.987 110.52C246.403 106.595 244.611 101.005 244.611 93.752V25.4H258.691V94.776C258.691 97.848 259.288 100.067 260.483 101.432C261.763 102.797 263.555 103.48 265.859 103.48C268.163 103.48 269.912 102.797 271.107 101.432C272.387 100.067 273.027 97.848 273.027 94.776V25.4H286.595V93.752C286.595 101.005 284.803 106.595 281.219 110.52C277.635 114.36 272.43 116.28 265.603 116.28ZM296.623 25.4H317.359C324.356 25.4 329.604 27.2773 333.103 31.032C336.602 34.7867 338.351 40.2907 338.351 47.544V56.376C338.351 63.6293 336.602 69.1333 333.103 72.888C329.604 76.6427 324.356 78.52 317.359 78.52H310.703V115H296.623V25.4ZM317.359 65.72C319.663 65.72 321.37 65.08 322.479 63.8C323.674 62.52 324.271 60.344 324.271 57.272V46.648C324.271 43.576 323.674 41.4 322.479 40.12C321.37 38.84 319.663 38.2 317.359 38.2H310.703V65.72H317.359ZM366.242 105.272C366.242 98.872 367.266 93.4107 369.314 88.888C371.362 84.28 375.031 79.2027 380.322 73.656C385.527 68.1093 389.111 63.3733 391.074 59.448C393.122 55.5227 394.146 51.4267 394.146 47.16C394.146 43.32 393.506 40.6747 392.226 39.224C391.031 37.688 389.239 36.92 386.85 36.92C381.986 36.92 379.554 39.864 379.554 45.752V55.352H366.242V46.648C366.242 39.3947 368.034 33.848 371.618 30.008C375.202 26.0827 380.407 24.12 387.234 24.12C394.061 24.12 399.266 26.0827 402.85 30.008C406.434 33.848 408.226 39.3947 408.226 46.648C408.226 52.1093 406.903 57.4427 404.258 62.648C401.698 67.8533 397.218 73.8267 390.818 80.568C386.637 85.0053 383.821 88.632 382.37 91.448C380.919 94.1787 380.194 97.1227 380.194 100.28V102.2H406.946V115H366.242V105.272Z" fill="#DAE7F4"/>
<path d="M480.176 63.1756C470.885 61.3175 461.595 67.6882 445.801 78.9695C432.794 88.26 424.432 77.1114 417 88.26C417 78.5111 429.078 48.3108 452.304 48.3108C463.453 48.3108 480.176 53.4267 480.176 63.1756Z" fill="#7DB678"/>
<path d="M484.821 62.2465C486.712 52.918 498.166 49.5197 516.075 40.2098C530.823 32.5428 522.883 19.8496 537.252 18.1168C527.333 13.6957 491.686 11.0316 482.231 32.2463C477.693 42.4294 474.901 57.8254 484.821 62.2465Z" fill="#7DB678"/>
<path d="M490.395 87.3309C490.395 97.4242 490.481 114.208 487.608 120.777C483.892 124.493 480.176 122.635 478.318 121.706C475.239 121.706 483.892 104.776 483.892 87.3309C483.892 69.8855 475.239 55.7432 478.317 55.7432C481.396 55.7432 490.395 69.8855 490.395 87.3309Z" fill="#579052"/>
<path d="M39.544 4.74267L51.9388 28.803L48.2643 30.3835L39.544 4.74267Z" fill="#DAE7F4"/>
<path d="M34.1394 52.1102L48.7236 30.1859L51.9438 32.6109L34.1394 52.1102Z" fill="#DAE7F4"/>
<path d="M77.2281 33.8039L51.0252 33.0061L51.4795 29.0006L77.2281 33.8039Z" fill="#DAE7F4"/>
<circle cx="51.0893" cy="31.8898" r="3.5" transform="rotate(-23.2732 51.0893 31.8898)" fill="#DAE7F4"/>
<path d="M49.3814 29.8481H53.6469L55.698 123H47.0164L49.3814 29.8481Z" fill="url(#paint0_linear_45_26)"/>
<path d="M1.61399 7.21954L20.5548 26.5529L17.51 29.147L1.61399 7.21954Z" fill="#DAE7F4"/>
<path d="M10.4226 54.0736L17.8905 28.8227L21.6827 30.1899L10.4226 54.0736Z" fill="#DAE7F4"/>
<path d="M46.1939 23.8714L20.9216 30.8386L20.1742 26.8772L46.1939 23.8714Z" fill="#DAE7F4"/>
<circle cx="20.6537" cy="29.7529" r="3.5" transform="rotate(-40.4299 20.6537 29.7529)" fill="#DAE7F4"/>
<path d="M19.1523 29.8481H23.4177L25.4689 123H16.7872L19.1523 29.8481Z" fill="url(#paint1_linear_45_26)"/>
<defs>
<linearGradient id="paint0_linear_45_26" x1="51.3572" y1="29.8481" x2="51.3572" y2="123" gradientUnits="userSpaceOnUse">
<stop stop-color="#DBE8F4"/>
<stop offset="1" stop-color="#648099"/>
</linearGradient>
<linearGradient id="paint1_linear_45_26" x1="21.1281" y1="29.8481" x2="21.1281" y2="123" gradientUnits="userSpaceOnUse">
<stop stop-color="#DBE8F4"/>
<stop offset="1" stop-color="#648099"/>
</linearGradient>
</defs>
</svg>
