<svg width="128" height="121" viewBox="0 0 128 121" fill="none" xmlns="http://www.w3.org/2000/svg">
<path d="M15.9323 27.8481H20.3685L22.4197 121H13.738L15.9323 27.8481Z" fill="url(#paint0_linear_31_8)"/>
<ellipse cx="3.19" cy="2.91569" rx="3.19" ry="2.91569" transform="matrix(0.329633 -0.944109 0.912965 0.408037 14.3297 31.3887)" fill="#D9D9D9"/>
<path d="M1.5259 1.10685L18.9145 28.4976L16.2716 30.415L1.5259 1.10685Z" fill="#D9D9D9"/>
<path d="M45.2936 21.5352L16.7597 31.2864L16.0114 27.8366L45.2936 21.5352Z" fill="#D9D9D9"/>
<path d="M1.62158 55.5616L17.8926 27.3055L20.4292 29.3986L1.62158 55.5616Z" fill="#D9D9D9"/>
<path d="M39.2106 27.8481H43.6468L45.698 121H37.0163L39.2106 27.8481Z" fill="url(#paint1_linear_31_8)"/>
<ellipse cx="3.19" cy="2.91569" rx="3.19" ry="2.91569" transform="matrix(0.329633 -0.944109 0.912965 0.408037 37.608 31.3887)" fill="#CFD6EE"/>
<path d="M24.8042 1.10685L42.1928 28.4976L39.5499 30.415L24.8042 1.10685Z" fill="#D9D9D9"/>
<path d="M68.5719 21.5352L40.038 31.2864L39.2897 27.8366L68.5719 21.5352Z" fill="#CFD6EE"/>
<path d="M24.8999 55.5616L41.1709 27.3055L43.7075 29.3986L24.8999 55.5616Z" fill="#D9D9D9"/>
<path d="M61.728 68.24C60.448 68.24 59.472 67.88 58.8 67.16C58.128 66.424 57.792 65.376 57.792 64.016V55.184C57.792 53.824 58.128 52.784 58.8 52.064C59.472 51.328 60.448 50.96 61.728 50.96C63.008 50.96 63.984 51.328 64.656 52.064C65.328 52.784 65.664 53.824 65.664 55.184V56.624H63.168V55.016C63.168 53.912 62.712 53.36 61.8 53.36C60.888 53.36 60.432 53.912 60.432 55.016V64.208C60.432 65.296 60.888 65.84 61.8 65.84C62.712 65.84 63.168 65.296 63.168 64.208V60.92H61.848V58.52H65.664V64.016C65.664 65.376 65.328 66.424 64.656 67.16C63.984 67.88 63.008 68.24 61.728 68.24ZM67.359 51.2H71.271C72.631 51.2 73.623 51.52 74.247 52.16C74.871 52.784 75.183 53.752 75.183 55.064V56.096C75.183 57.84 74.607 58.944 73.455 59.408V59.456C74.095 59.648 74.543 60.04 74.799 60.632C75.071 61.224 75.207 62.016 75.207 63.008V65.96C75.207 66.44 75.223 66.832 75.255 67.136C75.287 67.424 75.367 67.712 75.495 68H72.807C72.711 67.728 72.647 67.472 72.615 67.232C72.583 66.992 72.567 66.56 72.567 65.936V62.864C72.567 62.096 72.439 61.56 72.183 61.256C71.943 60.952 71.519 60.8 70.911 60.8H69.999V68H67.359V51.2ZM70.959 58.4C71.487 58.4 71.879 58.264 72.135 57.992C72.407 57.72 72.543 57.264 72.543 56.624V55.328C72.543 54.72 72.431 54.28 72.207 54.008C71.999 53.736 71.663 53.6 71.199 53.6H69.999V58.4H70.959ZM80.8547 68.24C79.5587 68.24 78.5667 67.872 77.8787 67.136C77.1907 66.4 76.8467 65.36 76.8467 64.016V55.184C76.8467 53.84 77.1907 52.8 77.8787 52.064C78.5667 51.328 79.5587 50.96 80.8547 50.96C82.1507 50.96 83.1427 51.328 83.8307 52.064C84.5187 52.8 84.8627 53.84 84.8627 55.184V64.016C84.8627 65.36 84.5187 66.4 83.8307 67.136C83.1427 67.872 82.1507 68.24 80.8547 68.24ZM80.8547 65.84C81.7667 65.84 82.2227 65.288 82.2227 64.184V55.016C82.2227 53.912 81.7667 53.36 80.8547 53.36C79.9427 53.36 79.4867 53.912 79.4867 55.016V64.184C79.4867 65.288 79.9427 65.84 80.8547 65.84ZM90.4881 68.24C89.2081 68.24 88.2321 67.88 87.5601 67.16C86.8881 66.424 86.5521 65.376 86.5521 64.016V51.2H89.1921V64.208C89.1921 64.784 89.3041 65.2 89.5281 65.456C89.7681 65.712 90.1041 65.84 90.5361 65.84C90.9681 65.84 91.2961 65.712 91.5201 65.456C91.7601 65.2 91.8801 64.784 91.8801 64.208V51.2H94.4241V64.016C94.4241 65.376 94.0881 66.424 93.4161 67.16C92.7441 67.88 91.7681 68.24 90.4881 68.24ZM96.3043 51.2H100.192C101.504 51.2 102.488 51.552 103.144 52.256C103.8 52.96 104.128 53.992 104.128 55.352V57.008C104.128 58.368 103.8 59.4 103.144 60.104C102.488 60.808 101.504 61.16 100.192 61.16H98.9443V68H96.3043V51.2ZM100.192 58.76C100.624 58.76 100.944 58.64 101.152 58.4C101.376 58.16 101.488 57.752 101.488 57.176V55.184C101.488 54.608 101.376 54.2 101.152 53.96C100.944 53.72 100.624 53.6 100.192 53.6H98.9443V58.76H100.192ZM113.294 68.24C111.998 68.24 111.006 67.872 110.318 67.136C109.63 66.4 109.286 65.36 109.286 64.016V55.328C109.286 52.416 110.63 50.96 113.318 50.96C114.598 50.96 115.574 51.328 116.246 52.064C116.918 52.784 117.254 53.824 117.254 55.184V55.496H114.758V55.016C114.758 53.912 114.302 53.36 113.39 53.36C112.894 53.36 112.526 53.512 112.286 53.816C112.046 54.12 111.926 54.656 111.926 55.424V58.64H111.974C112.438 57.664 113.238 57.176 114.374 57.176C115.334 57.176 116.062 57.504 116.558 58.16C117.054 58.816 117.302 59.768 117.302 61.016V64.016C117.302 65.36 116.958 66.4 116.27 67.136C115.582 67.872 114.59 68.24 113.294 68.24ZM113.294 65.84C114.206 65.84 114.662 65.296 114.662 64.208V61.232C114.662 60.128 114.206 59.576 113.294 59.576C112.382 59.576 111.926 60.128 111.926 61.232V64.208C111.926 65.296 112.382 65.84 113.294 65.84Z" fill="white"/>
<defs>
<linearGradient id="paint0_linear_31_8" x1="18.0788" y1="27.8481" x2="18.0788" y2="121" gradientUnits="userSpaceOnUse">
<stop stop-color="#D6E0EA"/>
<stop offset="1" stop-color="#415164"/>
</linearGradient>
<linearGradient id="paint1_linear_31_8" x1="41.3572" y1="27.8481" x2="41.3572" y2="121" gradientUnits="userSpaceOnUse">
<stop stop-color="#DBE8F4"/>
<stop offset="1" stop-color="#648099"/>
</linearGradient>
</defs>
</svg>
