<svg width="670" height="467" viewBox="0 0 670 467" fill="none" xmlns="http://www.w3.org/2000/svg">
<path d="M291.559 72.7727C300.965 76.2049 310.051 80.4584 318.712 85.484L233.069 233.069L291.559 72.7727Z" fill="#A1C0E3"/>
<path d="M318.335 85.2662C344.333 100.264 365.914 121.853 380.903 147.856C395.891 173.859 403.756 203.355 403.703 233.368L233.069 233.069L318.335 85.2662Z" fill="#7DB678"/>
<path d="M403.703 233.069C403.703 269.378 392.121 304.741 370.641 334.015C349.161 363.289 318.903 384.948 284.266 395.842C249.63 406.736 212.422 406.298 178.051 394.59C143.681 382.883 113.942 360.518 93.1573 330.746C72.3727 300.974 61.6269 265.348 62.4823 229.049C63.3377 192.75 75.7498 157.67 97.9138 128.91C120.078 100.151 150.838 79.2108 185.721 69.1356C220.605 59.0605 257.792 60.3753 291.877 72.889L233.069 233.069H403.703Z" fill="#8E3333"/>
<rect x="441.9" y="174.521" width="30.6829" height="30.6829" fill="#8E3333"/>
<rect x="441.9" y="215.849" width="30.6829" height="30.6829" fill="#7DB678"/>
<rect x="441.9" y="260.934" width="30.6829" height="30.6829" fill="#A1C0E3"/>
<path d="M482.409 196V184.364H489.386V185.614H483.818V189.545H488.864V190.795H483.818V196H482.409ZM494.523 196.182C493.735 196.182 493.044 195.994 492.449 195.619C491.858 195.244 491.396 194.72 491.062 194.045C490.733 193.371 490.568 192.583 490.568 191.682C490.568 190.773 490.733 189.979 491.062 189.301C491.396 188.623 491.858 188.097 492.449 187.722C493.044 187.347 493.735 187.159 494.523 187.159C495.311 187.159 496 187.347 496.591 187.722C497.186 188.097 497.648 188.623 497.977 189.301C498.311 189.979 498.477 190.773 498.477 191.682C498.477 192.583 498.311 193.371 497.977 194.045C497.648 194.72 497.186 195.244 496.591 195.619C496 195.994 495.311 196.182 494.523 196.182ZM494.523 194.977C495.121 194.977 495.614 194.824 496 194.517C496.386 194.21 496.672 193.807 496.858 193.307C497.044 192.807 497.136 192.265 497.136 191.682C497.136 191.098 497.044 190.555 496.858 190.051C496.672 189.547 496.386 189.14 496 188.83C495.614 188.519 495.121 188.364 494.523 188.364C493.924 188.364 493.432 188.519 493.045 188.83C492.659 189.14 492.373 189.547 492.188 190.051C492.002 190.555 491.909 191.098 491.909 191.682C491.909 192.265 492.002 192.807 492.188 193.307C492.373 193.807 492.659 194.21 493.045 194.517C493.432 194.824 493.924 194.977 494.523 194.977ZM506.706 189.227L505.501 189.568C505.426 189.367 505.314 189.172 505.166 188.983C505.022 188.79 504.825 188.631 504.575 188.506C504.325 188.381 504.005 188.318 503.615 188.318C503.081 188.318 502.636 188.441 502.28 188.688C501.928 188.93 501.751 189.239 501.751 189.614C501.751 189.947 501.873 190.21 502.115 190.403C502.357 190.597 502.736 190.758 503.251 190.886L504.547 191.205C505.327 191.394 505.909 191.684 506.291 192.074C506.674 192.46 506.865 192.958 506.865 193.568C506.865 194.068 506.721 194.515 506.433 194.909C506.149 195.303 505.751 195.614 505.24 195.841C504.729 196.068 504.134 196.182 503.456 196.182C502.566 196.182 501.829 195.989 501.246 195.602C500.662 195.216 500.293 194.652 500.138 193.909L501.411 193.591C501.532 194.061 501.761 194.413 502.098 194.648C502.439 194.883 502.884 195 503.433 195C504.058 195 504.554 194.867 504.922 194.602C505.293 194.333 505.479 194.011 505.479 193.636C505.479 193.333 505.373 193.08 505.161 192.875C504.948 192.667 504.623 192.511 504.183 192.409L502.729 192.068C501.929 191.879 501.342 191.585 500.967 191.188C500.596 190.786 500.411 190.284 500.411 189.682C500.411 189.189 500.549 188.754 500.825 188.375C501.106 187.996 501.486 187.699 501.967 187.483C502.452 187.267 503.001 187.159 503.615 187.159C504.479 187.159 505.157 187.348 505.649 187.727C506.145 188.106 506.498 188.606 506.706 189.227ZM515.065 189.227L513.861 189.568C513.785 189.367 513.673 189.172 513.526 188.983C513.382 188.79 513.185 188.631 512.935 188.506C512.685 188.381 512.365 188.318 511.974 188.318C511.44 188.318 510.995 188.441 510.639 188.688C510.287 188.93 510.111 189.239 510.111 189.614C510.111 189.947 510.232 190.21 510.474 190.403C510.717 190.597 511.096 190.758 511.611 190.886L512.906 191.205C513.687 191.394 514.268 191.684 514.651 192.074C515.033 192.46 515.224 192.958 515.224 193.568C515.224 194.068 515.08 194.515 514.793 194.909C514.509 195.303 514.111 195.614 513.599 195.841C513.088 196.068 512.493 196.182 511.815 196.182C510.925 196.182 510.188 195.989 509.605 195.602C509.022 195.216 508.652 194.652 508.497 193.909L509.77 193.591C509.891 194.061 510.12 194.413 510.457 194.648C510.798 194.883 511.243 195 511.793 195C512.418 195 512.914 194.867 513.281 194.602C513.652 194.333 513.838 194.011 513.838 193.636C513.838 193.333 513.732 193.08 513.52 192.875C513.308 192.667 512.982 192.511 512.543 192.409L511.088 192.068C510.289 191.879 509.702 191.585 509.327 191.188C508.955 190.786 508.77 190.284 508.77 189.682C508.77 189.189 508.908 188.754 509.185 188.375C509.465 187.996 509.846 187.699 510.327 187.483C510.812 187.267 511.361 187.159 511.974 187.159C512.838 187.159 513.516 187.348 514.009 187.727C514.505 188.106 514.857 188.606 515.065 189.227ZM517.243 196V187.273H518.584V196H517.243ZM517.925 185.818C517.663 185.818 517.438 185.729 517.249 185.551C517.063 185.373 516.97 185.159 516.97 184.909C516.97 184.659 517.063 184.445 517.249 184.267C517.438 184.089 517.663 184 517.925 184C518.186 184 518.41 184.089 518.595 184.267C518.785 184.445 518.879 184.659 518.879 184.909C518.879 185.159 518.785 185.373 518.595 185.551C518.41 185.729 518.186 185.818 517.925 185.818ZM522.381 184.364V196H521.04V184.364H522.381ZM529.518 196V184.364H536.496V185.614H530.928V189.545H535.973V190.795H530.928V196H529.518ZM543.68 192.432V187.273H545.021V196H543.68V194.523H543.589C543.385 194.966 543.067 195.343 542.635 195.653C542.203 195.96 541.658 196.114 540.999 196.114C540.453 196.114 539.968 195.994 539.544 195.756C539.12 195.513 538.786 195.15 538.544 194.665C538.302 194.176 538.18 193.561 538.18 192.818V187.273H539.521V192.727C539.521 193.364 539.699 193.871 540.055 194.25C540.415 194.629 540.874 194.818 541.43 194.818C541.764 194.818 542.103 194.733 542.447 194.562C542.796 194.392 543.088 194.131 543.322 193.778C543.561 193.426 543.68 192.977 543.68 192.432ZM551.136 196.182C550.295 196.182 549.57 195.996 548.96 195.625C548.354 195.25 547.886 194.727 547.557 194.057C547.231 193.383 547.068 192.598 547.068 191.705C547.068 190.811 547.231 190.023 547.557 189.341C547.886 188.655 548.345 188.121 548.932 187.739C549.523 187.352 550.212 187.159 551 187.159C551.455 187.159 551.903 187.235 552.347 187.386C552.79 187.538 553.193 187.784 553.557 188.125C553.92 188.462 554.21 188.909 554.426 189.466C554.642 190.023 554.75 190.708 554.75 191.523V192.091H548.023V190.932H553.386C553.386 190.439 553.288 190 553.091 189.614C552.898 189.227 552.621 188.922 552.261 188.699C551.905 188.475 551.485 188.364 551 188.364C550.466 188.364 550.004 188.496 549.614 188.761C549.227 189.023 548.93 189.364 548.722 189.784C548.513 190.205 548.409 190.655 548.409 191.136V191.909C548.409 192.568 548.523 193.127 548.75 193.585C548.981 194.04 549.301 194.386 549.71 194.625C550.119 194.86 550.595 194.977 551.136 194.977C551.489 194.977 551.807 194.928 552.091 194.83C552.379 194.727 552.627 194.576 552.835 194.375C553.044 194.17 553.205 193.917 553.318 193.614L554.614 193.977C554.477 194.417 554.248 194.803 553.926 195.136C553.604 195.466 553.206 195.723 552.733 195.909C552.259 196.091 551.727 196.182 551.136 196.182ZM558.131 184.364V196H556.79V184.364H558.131ZM566.768 189.227L565.564 189.568C565.488 189.367 565.376 189.172 565.229 188.983C565.085 188.79 564.888 188.631 564.638 188.506C564.388 188.381 564.068 188.318 563.678 188.318C563.143 188.318 562.698 188.441 562.342 188.688C561.99 188.93 561.814 189.239 561.814 189.614C561.814 189.947 561.935 190.21 562.178 190.403C562.42 190.597 562.799 190.758 563.314 190.886L564.609 191.205C565.39 191.394 565.971 191.684 566.354 192.074C566.736 192.46 566.928 192.958 566.928 193.568C566.928 194.068 566.784 194.515 566.496 194.909C566.212 195.303 565.814 195.614 565.303 195.841C564.791 196.068 564.196 196.182 563.518 196.182C562.628 196.182 561.892 195.989 561.308 195.602C560.725 195.216 560.356 194.652 560.2 193.909L561.473 193.591C561.594 194.061 561.823 194.413 562.161 194.648C562.501 194.883 562.946 195 563.496 195C564.121 195 564.617 194.867 564.984 194.602C565.356 194.333 565.541 194.011 565.541 193.636C565.541 193.333 565.435 193.08 565.223 192.875C565.011 192.667 564.685 192.511 564.246 192.409L562.791 192.068C561.992 191.879 561.405 191.585 561.03 191.188C560.659 190.786 560.473 190.284 560.473 189.682C560.473 189.189 560.611 188.754 560.888 188.375C561.168 187.996 561.549 187.699 562.03 187.483C562.515 187.267 563.064 187.159 563.678 187.159C564.541 187.159 565.219 187.348 565.712 187.727C566.208 188.106 566.56 188.606 566.768 189.227ZM578.446 189.557V190.807H573.355V189.557H578.446ZM589.01 196.159C588.23 196.159 587.54 196.021 586.942 195.744C586.347 195.464 585.883 195.08 585.55 194.591C585.216 194.098 585.052 193.538 585.055 192.909C585.052 192.417 585.148 191.962 585.345 191.545C585.542 191.125 585.811 190.775 586.152 190.494C586.497 190.21 586.881 190.03 587.305 189.955V189.886C586.749 189.742 586.305 189.43 585.976 188.949C585.646 188.464 585.483 187.913 585.487 187.295C585.483 186.705 585.633 186.176 585.936 185.71C586.239 185.244 586.656 184.877 587.186 184.608C587.72 184.339 588.328 184.205 589.01 184.205C589.684 184.205 590.286 184.339 590.817 184.608C591.347 184.877 591.764 185.244 592.067 185.71C592.374 186.176 592.529 186.705 592.533 187.295C592.529 187.913 592.36 188.464 592.027 188.949C591.697 189.43 591.26 189.742 590.714 189.886V189.955C591.135 190.03 591.514 190.21 591.851 190.494C592.188 190.775 592.457 191.125 592.658 191.545C592.858 191.962 592.961 192.417 592.964 192.909C592.961 193.538 592.79 194.098 592.453 194.591C592.12 195.08 591.656 195.464 591.061 195.744C590.47 196.021 589.786 196.159 589.01 196.159ZM589.01 194.909C589.536 194.909 589.991 194.824 590.374 194.653C590.756 194.483 591.052 194.242 591.26 193.932C591.468 193.621 591.574 193.258 591.578 192.841C591.574 192.402 591.461 192.013 591.237 191.676C591.014 191.339 590.709 191.074 590.322 190.881C589.94 190.687 589.502 190.591 589.01 190.591C588.514 190.591 588.071 190.687 587.68 190.881C587.294 191.074 586.989 191.339 586.766 191.676C586.546 192.013 586.438 192.402 586.442 192.841C586.438 193.258 586.538 193.621 586.743 193.932C586.951 194.242 587.249 194.483 587.635 194.653C588.021 194.824 588.48 194.909 589.01 194.909ZM589.01 189.386C589.427 189.386 589.796 189.303 590.118 189.136C590.444 188.97 590.699 188.737 590.885 188.438C591.071 188.138 591.165 187.788 591.169 187.386C591.165 186.992 591.072 186.65 590.891 186.358C590.709 186.062 590.457 185.835 590.135 185.676C589.813 185.513 589.438 185.432 589.01 185.432C588.574 185.432 588.194 185.513 587.868 185.676C587.542 185.835 587.29 186.062 587.112 186.358C586.934 186.65 586.847 186.992 586.851 187.386C586.847 187.788 586.936 188.138 587.118 188.438C587.304 188.737 587.559 188.97 587.885 189.136C588.211 189.303 588.586 189.386 589.01 189.386ZM598.938 196.159C598.081 196.159 597.352 195.926 596.75 195.46C596.148 194.991 595.688 194.311 595.369 193.42C595.051 192.527 594.892 191.447 594.892 190.182C594.892 188.924 595.051 187.85 595.369 186.96C595.691 186.066 596.153 185.384 596.756 184.915C597.362 184.441 598.089 184.205 598.938 184.205C599.786 184.205 600.511 184.441 601.114 184.915C601.72 185.384 602.182 186.066 602.5 186.96C602.822 187.85 602.983 188.924 602.983 190.182C602.983 191.447 602.824 192.527 602.506 193.42C602.188 194.311 601.727 194.991 601.125 195.46C600.523 195.926 599.794 196.159 598.938 196.159ZM598.938 194.909C599.786 194.909 600.445 194.5 600.915 193.682C601.384 192.864 601.619 191.697 601.619 190.182C601.619 189.174 601.511 188.316 601.295 187.608C601.083 186.9 600.777 186.36 600.375 185.989C599.977 185.617 599.498 185.432 598.938 185.432C598.097 185.432 597.439 185.847 596.966 186.676C596.492 187.502 596.256 188.67 596.256 190.182C596.256 191.189 596.362 192.045 596.574 192.75C596.786 193.455 597.091 193.991 597.489 194.358C597.89 194.725 598.373 194.909 598.938 194.909ZM605.736 196.091C605.455 196.091 605.215 195.991 605.014 195.79C604.813 195.589 604.713 195.348 604.713 195.068C604.713 194.788 604.813 194.547 605.014 194.347C605.215 194.146 605.455 194.045 605.736 194.045C606.016 194.045 606.257 194.146 606.457 194.347C606.658 194.547 606.759 194.788 606.759 195.068C606.759 195.254 606.711 195.424 606.616 195.58C606.526 195.735 606.402 195.86 606.247 195.955C606.096 196.045 605.925 196.091 605.736 196.091ZM612.599 196.159C612.122 196.152 611.645 196.061 611.168 195.886C610.69 195.712 610.255 195.419 609.861 195.006C609.467 194.589 609.151 194.027 608.912 193.318C608.673 192.606 608.554 191.712 608.554 190.636C608.554 189.606 608.651 188.693 608.844 187.898C609.037 187.098 609.317 186.426 609.685 185.881C610.052 185.331 610.495 184.915 611.014 184.631C611.537 184.347 612.126 184.205 612.781 184.205C613.433 184.205 614.012 184.335 614.52 184.597C615.031 184.854 615.448 185.214 615.77 185.676C616.092 186.138 616.3 186.67 616.395 187.273H615.009C614.88 186.75 614.63 186.316 614.259 185.972C613.887 185.627 613.395 185.455 612.781 185.455C611.88 185.455 611.17 185.847 610.651 186.631C610.135 187.415 609.876 188.515 609.872 189.932H609.963C610.175 189.61 610.427 189.335 610.719 189.108C611.014 188.877 611.34 188.699 611.696 188.574C612.052 188.449 612.429 188.386 612.827 188.386C613.493 188.386 614.103 188.553 614.656 188.886C615.209 189.216 615.652 189.672 615.986 190.256C616.319 190.835 616.486 191.5 616.486 192.25C616.486 192.97 616.325 193.629 616.003 194.227C615.681 194.822 615.228 195.295 614.645 195.648C614.065 195.996 613.384 196.167 612.599 196.159ZM612.599 194.909C613.077 194.909 613.505 194.79 613.884 194.551C614.266 194.312 614.567 193.992 614.787 193.591C615.01 193.189 615.122 192.742 615.122 192.25C615.122 191.769 615.014 191.331 614.798 190.938C614.586 190.54 614.293 190.223 613.918 189.989C613.546 189.754 613.122 189.636 612.645 189.636C612.285 189.636 611.95 189.708 611.639 189.852C611.329 189.992 611.056 190.186 610.821 190.432C610.59 190.678 610.408 190.96 610.276 191.278C610.143 191.593 610.077 191.924 610.077 192.273C610.077 192.735 610.185 193.167 610.401 193.568C610.62 193.97 610.92 194.294 611.298 194.54C611.681 194.786 612.115 194.909 612.599 194.909ZM624.652 193.818V193.205C624.652 192.78 624.739 192.392 624.913 192.04C625.091 191.684 625.349 191.4 625.686 191.188C626.027 190.972 626.44 190.864 626.925 190.864C627.417 190.864 627.83 190.972 628.163 191.188C628.497 191.4 628.749 191.684 628.919 192.04C629.089 192.392 629.175 192.78 629.175 193.205V193.818C629.175 194.242 629.088 194.633 628.913 194.989C628.743 195.341 628.489 195.625 628.152 195.841C627.819 196.053 627.41 196.159 626.925 196.159C626.432 196.159 626.018 196.053 625.68 195.841C625.343 195.625 625.088 195.341 624.913 194.989C624.739 194.633 624.652 194.242 624.652 193.818ZM625.811 193.205V193.818C625.811 194.17 625.894 194.487 626.061 194.767C626.228 195.044 626.516 195.182 626.925 195.182C627.322 195.182 627.603 195.044 627.766 194.767C627.932 194.487 628.016 194.17 628.016 193.818V193.205C628.016 192.852 627.936 192.538 627.777 192.261C627.618 191.981 627.334 191.841 626.925 191.841C626.527 191.841 626.241 191.981 626.067 192.261C625.896 192.538 625.811 192.852 625.811 193.205ZM618.857 187.159V186.545C618.857 186.121 618.944 185.733 619.118 185.381C619.296 185.025 619.554 184.741 619.891 184.528C620.232 184.312 620.644 184.205 621.129 184.205C621.622 184.205 622.035 184.312 622.368 184.528C622.701 184.741 622.953 185.025 623.124 185.381C623.294 185.733 623.379 186.121 623.379 186.545V187.159C623.379 187.583 623.292 187.973 623.118 188.33C622.947 188.682 622.694 188.966 622.357 189.182C622.023 189.394 621.614 189.5 621.129 189.5C620.637 189.5 620.222 189.394 619.885 189.182C619.548 188.966 619.292 188.682 619.118 188.33C618.944 187.973 618.857 187.583 618.857 187.159ZM620.016 186.545V187.159C620.016 187.511 620.099 187.828 620.266 188.108C620.432 188.384 620.72 188.523 621.129 188.523C621.527 188.523 621.807 188.384 621.97 188.108C622.137 187.828 622.22 187.511 622.22 187.159V186.545C622.22 186.193 622.141 185.879 621.982 185.602C621.822 185.322 621.538 185.182 621.129 185.182C620.732 185.182 620.446 185.322 620.271 185.602C620.101 185.879 620.016 186.193 620.016 186.545ZM619.288 196L627.288 184.364H628.584L620.584 196H619.288Z" fill="white"/>
<path d="M484.409 238V226.364H488.341C489.25 226.364 489.996 226.519 490.58 226.83C491.163 227.136 491.595 227.559 491.875 228.097C492.155 228.634 492.295 229.246 492.295 229.932C492.295 230.617 492.155 231.225 491.875 231.756C491.595 232.286 491.165 232.703 490.585 233.006C490.006 233.305 489.265 233.455 488.364 233.455H485.182V232.182H488.318C488.939 232.182 489.439 232.091 489.818 231.909C490.201 231.727 490.477 231.47 490.648 231.136C490.822 230.799 490.909 230.398 490.909 229.932C490.909 229.466 490.822 229.059 490.648 228.71C490.473 228.362 490.195 228.093 489.812 227.903C489.43 227.71 488.924 227.614 488.295 227.614H485.818V238H484.409ZM489.886 232.773L492.75 238H491.114L488.295 232.773H489.886ZM498.027 238.182C497.186 238.182 496.461 237.996 495.851 237.625C495.245 237.25 494.777 236.727 494.447 236.057C494.122 235.383 493.959 234.598 493.959 233.705C493.959 232.811 494.122 232.023 494.447 231.341C494.777 230.655 495.235 230.121 495.822 229.739C496.413 229.352 497.103 229.159 497.891 229.159C498.345 229.159 498.794 229.235 499.237 229.386C499.68 229.538 500.084 229.784 500.447 230.125C500.811 230.462 501.101 230.909 501.317 231.466C501.533 232.023 501.641 232.708 501.641 233.523V234.091H494.913V232.932H500.277C500.277 232.439 500.179 232 499.982 231.614C499.788 231.227 499.512 230.922 499.152 230.699C498.796 230.475 498.375 230.364 497.891 230.364C497.357 230.364 496.894 230.496 496.504 230.761C496.118 231.023 495.821 231.364 495.612 231.784C495.404 232.205 495.3 232.655 495.3 233.136V233.909C495.3 234.568 495.413 235.127 495.641 235.585C495.872 236.04 496.192 236.386 496.601 236.625C497.01 236.86 497.485 236.977 498.027 236.977C498.379 236.977 498.697 236.928 498.982 236.83C499.269 236.727 499.518 236.576 499.726 236.375C499.934 236.17 500.095 235.917 500.209 235.614L501.504 235.977C501.368 236.417 501.139 236.803 500.817 237.136C500.495 237.466 500.097 237.723 499.624 237.909C499.15 238.091 498.618 238.182 498.027 238.182ZM505.021 232.75V238H503.68V229.273H504.976V230.636H505.089C505.294 230.193 505.605 229.837 506.021 229.568C506.438 229.295 506.976 229.159 507.635 229.159C508.226 229.159 508.743 229.28 509.186 229.523C509.629 229.761 509.974 230.125 510.22 230.614C510.466 231.098 510.589 231.712 510.589 232.455V238H509.249V232.545C509.249 231.86 509.071 231.326 508.714 230.943C508.358 230.557 507.87 230.364 507.249 230.364C506.821 230.364 506.438 230.456 506.101 230.642C505.768 230.828 505.504 231.098 505.311 231.455C505.118 231.811 505.021 232.242 505.021 232.75ZM516.699 238.182C515.858 238.182 515.133 237.996 514.523 237.625C513.917 237.25 513.449 236.727 513.119 236.057C512.794 235.383 512.631 234.598 512.631 233.705C512.631 232.811 512.794 232.023 513.119 231.341C513.449 230.655 513.907 230.121 514.494 229.739C515.085 229.352 515.775 229.159 516.562 229.159C517.017 229.159 517.466 229.235 517.909 229.386C518.352 229.538 518.756 229.784 519.119 230.125C519.483 230.462 519.773 230.909 519.989 231.466C520.205 232.023 520.312 232.708 520.312 233.523V234.091H513.585V232.932H518.949C518.949 232.439 518.85 232 518.653 231.614C518.46 231.227 518.184 230.922 517.824 230.699C517.468 230.475 517.047 230.364 516.562 230.364C516.028 230.364 515.566 230.496 515.176 230.761C514.79 231.023 514.492 231.364 514.284 231.784C514.076 232.205 513.972 232.655 513.972 233.136V233.909C513.972 234.568 514.085 235.127 514.312 235.585C514.544 236.04 514.864 236.386 515.273 236.625C515.682 236.86 516.157 236.977 516.699 236.977C517.051 236.977 517.369 236.928 517.653 236.83C517.941 236.727 518.189 236.576 518.398 236.375C518.606 236.17 518.767 235.917 518.881 235.614L520.176 235.977C520.04 236.417 519.811 236.803 519.489 237.136C519.167 237.466 518.769 237.723 518.295 237.909C517.822 238.091 517.29 238.182 516.699 238.182ZM524.33 238L521.67 229.273H523.08L524.966 235.955H525.057L526.92 229.273H528.352L530.193 235.932H530.284L532.17 229.273H533.58L530.92 238H529.602L527.693 231.295H527.557L525.648 238H524.33ZM537.92 238.205C537.367 238.205 536.866 238.1 536.415 237.892C535.964 237.68 535.606 237.375 535.341 236.977C535.076 236.576 534.943 236.091 534.943 235.523C534.943 235.023 535.042 234.617 535.239 234.307C535.436 233.992 535.699 233.746 536.028 233.568C536.358 233.39 536.722 233.258 537.119 233.17C537.521 233.08 537.924 233.008 538.33 232.955C538.86 232.886 539.29 232.835 539.619 232.801C539.953 232.763 540.195 232.701 540.347 232.614C540.502 232.527 540.58 232.375 540.58 232.159V232.114C540.58 231.553 540.426 231.117 540.119 230.807C539.816 230.496 539.356 230.341 538.739 230.341C538.098 230.341 537.597 230.481 537.233 230.761C536.869 231.042 536.614 231.341 536.466 231.659L535.193 231.205C535.42 230.674 535.723 230.261 536.102 229.966C536.485 229.667 536.902 229.458 537.352 229.341C537.807 229.22 538.254 229.159 538.693 229.159C538.973 229.159 539.295 229.193 539.659 229.261C540.027 229.326 540.381 229.46 540.722 229.665C541.066 229.869 541.352 230.178 541.58 230.591C541.807 231.004 541.92 231.557 541.92 232.25V238H540.58V236.818H540.511C540.42 237.008 540.269 237.21 540.057 237.426C539.845 237.642 539.563 237.826 539.21 237.977C538.858 238.129 538.428 238.205 537.92 238.205ZM538.125 237C538.655 237 539.102 236.896 539.466 236.688C539.833 236.479 540.11 236.21 540.295 235.881C540.485 235.551 540.58 235.205 540.58 234.841V233.614C540.523 233.682 540.398 233.744 540.205 233.801C540.015 233.854 539.795 233.902 539.545 233.943C539.299 233.981 539.059 234.015 538.824 234.045C538.593 234.072 538.405 234.095 538.261 234.114C537.913 234.159 537.587 234.233 537.284 234.335C536.985 234.434 536.742 234.583 536.557 234.784C536.375 234.981 536.284 235.25 536.284 235.591C536.284 236.057 536.456 236.409 536.801 236.648C537.15 236.883 537.591 237 538.125 237ZM544.55 238V226.364H545.891V230.659H546.004C546.103 230.508 546.239 230.314 546.413 230.08C546.591 229.841 546.845 229.629 547.175 229.443C547.508 229.254 547.959 229.159 548.527 229.159C549.262 229.159 549.91 229.343 550.47 229.71C551.031 230.078 551.468 230.598 551.783 231.273C552.097 231.947 552.254 232.742 552.254 233.659C552.254 234.583 552.097 235.384 551.783 236.062C551.468 236.737 551.033 237.259 550.476 237.631C549.919 237.998 549.277 238.182 548.55 238.182C547.989 238.182 547.54 238.089 547.203 237.903C546.866 237.714 546.607 237.5 546.425 237.261C546.243 237.019 546.103 236.818 546.004 236.659H545.845V238H544.55ZM545.868 233.636C545.868 234.295 545.964 234.877 546.158 235.381C546.351 235.881 546.633 236.273 547.004 236.557C547.375 236.837 547.83 236.977 548.368 236.977C548.929 236.977 549.396 236.83 549.771 236.534C550.15 236.235 550.434 235.833 550.624 235.33C550.817 234.822 550.913 234.258 550.913 233.636C550.913 233.023 550.819 232.47 550.629 231.977C550.444 231.481 550.161 231.089 549.783 230.801C549.408 230.509 548.936 230.364 548.368 230.364C547.822 230.364 547.364 230.502 546.993 230.778C546.622 231.051 546.341 231.434 546.152 231.926C545.963 232.415 545.868 232.985 545.868 233.636ZM555.646 226.364V238H554.305V226.364H555.646ZM561.761 238.182C560.92 238.182 560.195 237.996 559.585 237.625C558.979 237.25 558.511 236.727 558.182 236.057C557.856 235.383 557.693 234.598 557.693 233.705C557.693 232.811 557.856 232.023 558.182 231.341C558.511 230.655 558.97 230.121 559.557 229.739C560.148 229.352 560.837 229.159 561.625 229.159C562.08 229.159 562.528 229.235 562.972 229.386C563.415 229.538 563.818 229.784 564.182 230.125C564.545 230.462 564.835 230.909 565.051 231.466C565.267 232.023 565.375 232.708 565.375 233.523V234.091H558.648V232.932H564.011C564.011 232.439 563.913 232 563.716 231.614C563.523 231.227 563.246 230.922 562.886 230.699C562.53 230.475 562.11 230.364 561.625 230.364C561.091 230.364 560.629 230.496 560.239 230.761C559.852 231.023 559.555 231.364 559.347 231.784C559.138 232.205 559.034 232.655 559.034 233.136V233.909C559.034 234.568 559.148 235.127 559.375 235.585C559.606 236.04 559.926 236.386 560.335 236.625C560.744 236.86 561.22 236.977 561.761 236.977C562.114 236.977 562.432 236.928 562.716 236.83C563.004 236.727 563.252 236.576 563.46 236.375C563.669 236.17 563.83 235.917 563.943 235.614L565.239 235.977C565.102 236.417 564.873 236.803 564.551 237.136C564.229 237.466 563.831 237.723 563.358 237.909C562.884 238.091 562.352 238.182 561.761 238.182ZM576.915 231.557V232.807H571.824V231.557H576.915ZM587.842 226.364V238H586.433V227.841H586.365L583.524 229.727V228.295L586.433 226.364H587.842ZM595.053 238.159C594.575 238.152 594.098 238.061 593.621 237.886C593.143 237.712 592.708 237.419 592.314 237.006C591.92 236.589 591.604 236.027 591.365 235.318C591.126 234.606 591.007 233.712 591.007 232.636C591.007 231.606 591.104 230.693 591.297 229.898C591.49 229.098 591.77 228.426 592.138 227.881C592.505 227.331 592.948 226.915 593.467 226.631C593.99 226.347 594.579 226.205 595.234 226.205C595.886 226.205 596.465 226.335 596.973 226.597C597.484 226.854 597.901 227.214 598.223 227.676C598.545 228.138 598.753 228.67 598.848 229.273H597.462C597.333 228.75 597.083 228.316 596.712 227.972C596.34 227.627 595.848 227.455 595.234 227.455C594.333 227.455 593.623 227.847 593.104 228.631C592.589 229.415 592.329 230.515 592.325 231.932H592.416C592.628 231.61 592.88 231.335 593.172 231.108C593.467 230.877 593.793 230.699 594.149 230.574C594.505 230.449 594.882 230.386 595.28 230.386C595.946 230.386 596.556 230.553 597.109 230.886C597.662 231.216 598.106 231.672 598.439 232.256C598.772 232.835 598.939 233.5 598.939 234.25C598.939 234.97 598.778 235.629 598.456 236.227C598.134 236.822 597.681 237.295 597.098 237.648C596.518 237.996 595.837 238.167 595.053 238.159ZM595.053 236.909C595.53 236.909 595.958 236.79 596.337 236.551C596.719 236.312 597.02 235.992 597.24 235.591C597.464 235.189 597.575 234.742 597.575 234.25C597.575 233.769 597.467 233.331 597.251 232.938C597.039 232.54 596.746 232.223 596.371 231.989C596 231.754 595.575 231.636 595.098 231.636C594.738 231.636 594.403 231.708 594.092 231.852C593.782 231.992 593.509 232.186 593.274 232.432C593.043 232.678 592.861 232.96 592.729 233.278C592.596 233.593 592.53 233.924 592.53 234.273C592.53 234.735 592.638 235.167 592.854 235.568C593.073 235.97 593.373 236.294 593.751 236.54C594.134 236.786 594.568 236.909 595.053 236.909ZM601.626 238.091C601.346 238.091 601.106 237.991 600.905 237.79C600.704 237.589 600.604 237.348 600.604 237.068C600.604 236.788 600.704 236.547 600.905 236.347C601.106 236.146 601.346 236.045 601.626 236.045C601.907 236.045 602.147 236.146 602.348 236.347C602.549 236.547 602.649 236.788 602.649 237.068C602.649 237.254 602.602 237.424 602.507 237.58C602.416 237.735 602.293 237.86 602.138 237.955C601.986 238.045 601.816 238.091 601.626 238.091ZM605.162 238L610.366 227.705V227.614H604.366V226.364H611.821V227.682L606.639 238H605.162ZM619.871 235.818V235.205C619.871 234.78 619.958 234.392 620.132 234.04C620.31 233.684 620.568 233.4 620.905 233.188C621.246 232.972 621.659 232.864 622.143 232.864C622.636 232.864 623.049 232.972 623.382 233.188C623.715 233.4 623.967 233.684 624.138 234.04C624.308 234.392 624.393 234.78 624.393 235.205V235.818C624.393 236.242 624.306 236.633 624.132 236.989C623.962 237.341 623.708 237.625 623.371 237.841C623.037 238.053 622.628 238.159 622.143 238.159C621.651 238.159 621.236 238.053 620.899 237.841C620.562 237.625 620.306 237.341 620.132 236.989C619.958 236.633 619.871 236.242 619.871 235.818ZM621.03 235.205V235.818C621.03 236.17 621.113 236.487 621.28 236.767C621.446 237.044 621.734 237.182 622.143 237.182C622.541 237.182 622.821 237.044 622.984 236.767C623.151 236.487 623.234 236.17 623.234 235.818V235.205C623.234 234.852 623.155 234.538 622.996 234.261C622.837 233.981 622.553 233.841 622.143 233.841C621.746 233.841 621.46 233.981 621.286 234.261C621.115 234.538 621.03 234.852 621.03 235.205ZM614.075 229.159V228.545C614.075 228.121 614.162 227.733 614.337 227.381C614.515 227.025 614.772 226.741 615.109 226.528C615.45 226.312 615.863 226.205 616.348 226.205C616.84 226.205 617.253 226.312 617.587 226.528C617.92 226.741 618.172 227.025 618.342 227.381C618.513 227.733 618.598 228.121 618.598 228.545V229.159C618.598 229.583 618.511 229.973 618.337 230.33C618.166 230.682 617.912 230.966 617.575 231.182C617.242 231.394 616.833 231.5 616.348 231.5C615.856 231.5 615.441 231.394 615.104 231.182C614.767 230.966 614.511 230.682 614.337 230.33C614.162 229.973 614.075 229.583 614.075 229.159ZM615.234 228.545V229.159C615.234 229.511 615.318 229.828 615.484 230.108C615.651 230.384 615.939 230.523 616.348 230.523C616.746 230.523 617.026 230.384 617.189 230.108C617.356 229.828 617.439 229.511 617.439 229.159V228.545C617.439 228.193 617.359 227.879 617.2 227.602C617.041 227.322 616.757 227.182 616.348 227.182C615.95 227.182 615.664 227.322 615.49 227.602C615.32 227.879 615.234 228.193 615.234 228.545ZM614.507 238L622.507 226.364H623.803L615.803 238H614.507Z" fill="white"/>
<path d="M491.636 270.364V282H490.273L483.932 272.864H483.818V282H482.409V270.364H483.773L490.136 279.523H490.25V270.364H491.636ZM499.774 278.432V273.273H501.115V282H499.774V280.523H499.683C499.479 280.966 499.161 281.343 498.729 281.653C498.297 281.96 497.751 282.114 497.092 282.114C496.547 282.114 496.062 281.994 495.638 281.756C495.214 281.513 494.88 281.15 494.638 280.665C494.395 280.176 494.274 279.561 494.274 278.818V273.273H495.615V278.727C495.615 279.364 495.793 279.871 496.149 280.25C496.509 280.629 496.967 280.818 497.524 280.818C497.857 280.818 498.196 280.733 498.541 280.562C498.89 280.392 499.181 280.131 499.416 279.778C499.655 279.426 499.774 278.977 499.774 278.432ZM507.116 282.182C506.298 282.182 505.594 281.989 505.003 281.602C504.412 281.216 503.957 280.684 503.639 280.006C503.321 279.328 503.162 278.553 503.162 277.682C503.162 276.795 503.325 276.013 503.651 275.335C503.98 274.653 504.438 274.121 505.026 273.739C505.616 273.352 506.306 273.159 507.094 273.159C507.707 273.159 508.26 273.273 508.753 273.5C509.245 273.727 509.649 274.045 509.963 274.455C510.277 274.864 510.473 275.341 510.548 275.886H509.207C509.105 275.489 508.878 275.136 508.526 274.83C508.177 274.519 507.707 274.364 507.116 274.364C506.594 274.364 506.135 274.5 505.741 274.773C505.351 275.042 505.046 275.422 504.827 275.915C504.611 276.403 504.503 276.977 504.503 277.636C504.503 278.311 504.609 278.898 504.821 279.398C505.037 279.898 505.34 280.286 505.73 280.562C506.124 280.839 506.586 280.977 507.116 280.977C507.465 280.977 507.781 280.917 508.065 280.795C508.349 280.674 508.59 280.5 508.787 280.273C508.984 280.045 509.124 279.773 509.207 279.455H510.548C510.473 279.97 510.285 280.434 509.986 280.847C509.69 281.256 509.298 281.581 508.81 281.824C508.325 282.062 507.76 282.182 507.116 282.182ZM513.849 270.364V282H512.509V270.364H513.849ZM519.964 282.182C519.124 282.182 518.398 281.996 517.788 281.625C517.182 281.25 516.714 280.727 516.385 280.057C516.059 279.383 515.896 278.598 515.896 277.705C515.896 276.811 516.059 276.023 516.385 275.341C516.714 274.655 517.173 274.121 517.76 273.739C518.351 273.352 519.04 273.159 519.828 273.159C520.283 273.159 520.732 273.235 521.175 273.386C521.618 273.538 522.021 273.784 522.385 274.125C522.749 274.462 523.038 274.909 523.254 275.466C523.47 276.023 523.578 276.708 523.578 277.523V278.091H516.851V276.932H522.214C522.214 276.439 522.116 276 521.919 275.614C521.726 275.227 521.449 274.922 521.089 274.699C520.733 274.475 520.313 274.364 519.828 274.364C519.294 274.364 518.832 274.496 518.442 274.761C518.055 275.023 517.758 275.364 517.55 275.784C517.341 276.205 517.237 276.655 517.237 277.136V277.909C517.237 278.568 517.351 279.127 517.578 279.585C517.809 280.04 518.129 280.386 518.538 280.625C518.947 280.86 519.423 280.977 519.964 280.977C520.317 280.977 520.635 280.928 520.919 280.83C521.207 280.727 521.455 280.576 521.663 280.375C521.872 280.17 522.033 279.917 522.146 279.614L523.442 279.977C523.305 280.417 523.076 280.803 522.754 281.136C522.432 281.466 522.035 281.723 521.561 281.909C521.088 282.091 520.555 282.182 519.964 282.182ZM528.186 282.205C527.633 282.205 527.131 282.1 526.68 281.892C526.23 281.68 525.872 281.375 525.607 280.977C525.341 280.576 525.209 280.091 525.209 279.523C525.209 279.023 525.307 278.617 525.504 278.307C525.701 277.992 525.964 277.746 526.294 277.568C526.624 277.39 526.987 277.258 527.385 277.17C527.786 277.08 528.19 277.008 528.595 276.955C529.125 276.886 529.555 276.835 529.885 276.801C530.218 276.763 530.461 276.701 530.612 276.614C530.768 276.527 530.845 276.375 530.845 276.159V276.114C530.845 275.553 530.692 275.117 530.385 274.807C530.082 274.496 529.622 274.341 529.004 274.341C528.364 274.341 527.862 274.481 527.499 274.761C527.135 275.042 526.879 275.341 526.732 275.659L525.459 275.205C525.686 274.674 525.989 274.261 526.368 273.966C526.75 273.667 527.167 273.458 527.618 273.341C528.072 273.22 528.519 273.159 528.959 273.159C529.239 273.159 529.561 273.193 529.925 273.261C530.292 273.326 530.646 273.46 530.987 273.665C531.332 273.869 531.618 274.178 531.845 274.591C532.072 275.004 532.186 275.557 532.186 276.25V282H530.845V280.818H530.777C530.686 281.008 530.535 281.21 530.322 281.426C530.11 281.642 529.828 281.826 529.476 281.977C529.124 282.129 528.694 282.205 528.186 282.205ZM528.391 281C528.921 281 529.368 280.896 529.732 280.688C530.099 280.479 530.375 280.21 530.561 279.881C530.75 279.551 530.845 279.205 530.845 278.841V277.614C530.788 277.682 530.663 277.744 530.47 277.801C530.281 277.854 530.061 277.902 529.811 277.943C529.565 277.981 529.324 278.015 529.089 278.045C528.858 278.072 528.671 278.095 528.527 278.114C528.179 278.159 527.853 278.233 527.55 278.335C527.25 278.434 527.008 278.583 526.822 278.784C526.641 278.981 526.55 279.25 526.55 279.591C526.55 280.057 526.722 280.409 527.067 280.648C527.415 280.883 527.857 281 528.391 281ZM534.634 282V273.273H535.929V274.591H536.02C536.179 274.159 536.467 273.809 536.884 273.54C537.3 273.271 537.77 273.136 538.293 273.136C538.391 273.136 538.514 273.138 538.662 273.142C538.81 273.146 538.921 273.152 538.997 273.159V274.523C538.952 274.511 538.848 274.494 538.685 274.472C538.526 274.445 538.357 274.432 538.179 274.432C537.755 274.432 537.376 274.521 537.043 274.699C536.713 274.873 536.452 275.116 536.259 275.426C536.069 275.733 535.974 276.083 535.974 276.477V282H534.634ZM550.087 275.557V276.807H544.996V275.557H550.087ZM556.923 282V280.977L560.764 276.773C561.215 276.28 561.586 275.852 561.878 275.489C562.17 275.121 562.385 274.777 562.526 274.455C562.67 274.129 562.741 273.788 562.741 273.432C562.741 273.023 562.643 272.669 562.446 272.369C562.253 272.07 561.988 271.839 561.651 271.676C561.313 271.513 560.935 271.432 560.514 271.432C560.067 271.432 559.677 271.525 559.344 271.71C559.014 271.892 558.759 272.148 558.577 272.477C558.399 272.807 558.31 273.193 558.31 273.636H556.969C556.969 272.955 557.126 272.356 557.44 271.841C557.755 271.326 558.183 270.924 558.724 270.636C559.27 270.348 559.882 270.205 560.56 270.205C561.241 270.205 561.846 270.348 562.372 270.636C562.899 270.924 563.312 271.312 563.611 271.801C563.91 272.29 564.06 272.833 564.06 273.432C564.06 273.86 563.982 274.278 563.827 274.688C563.675 275.093 563.41 275.545 563.031 276.045C562.656 276.542 562.135 277.148 561.469 277.864L558.855 280.659V280.75H564.264V282H556.923ZM567.611 282.091C567.33 282.091 567.09 281.991 566.889 281.79C566.688 281.589 566.588 281.348 566.588 281.068C566.588 280.788 566.688 280.547 566.889 280.347C567.09 280.146 567.33 280.045 567.611 280.045C567.891 280.045 568.132 280.146 568.332 280.347C568.533 280.547 568.634 280.788 568.634 281.068C568.634 281.254 568.586 281.424 568.491 281.58C568.401 281.735 568.277 281.86 568.122 281.955C567.971 282.045 567.8 282.091 567.611 282.091ZM571.146 282L576.351 271.705V271.614H570.351V270.364H577.805V271.682L572.624 282H571.146ZM585.855 279.818V279.205C585.855 278.78 585.942 278.392 586.116 278.04C586.295 277.684 586.552 277.4 586.889 277.188C587.23 276.972 587.643 276.864 588.128 276.864C588.62 276.864 589.033 276.972 589.366 277.188C589.7 277.4 589.952 277.684 590.122 278.04C590.293 278.392 590.378 278.78 590.378 279.205V279.818C590.378 280.242 590.291 280.633 590.116 280.989C589.946 281.341 589.692 281.625 589.355 281.841C589.022 282.053 588.613 282.159 588.128 282.159C587.635 282.159 587.221 282.053 586.884 281.841C586.546 281.625 586.291 281.341 586.116 280.989C585.942 280.633 585.855 280.242 585.855 279.818ZM587.014 279.205V279.818C587.014 280.17 587.098 280.487 587.264 280.767C587.431 281.044 587.719 281.182 588.128 281.182C588.526 281.182 588.806 281.044 588.969 280.767C589.135 280.487 589.219 280.17 589.219 279.818V279.205C589.219 278.852 589.139 278.538 588.98 278.261C588.821 277.981 588.537 277.841 588.128 277.841C587.73 277.841 587.444 277.981 587.27 278.261C587.099 278.538 587.014 278.852 587.014 279.205ZM580.06 273.159V272.545C580.06 272.121 580.147 271.733 580.321 271.381C580.499 271.025 580.757 270.741 581.094 270.528C581.435 270.312 581.848 270.205 582.332 270.205C582.825 270.205 583.238 270.312 583.571 270.528C583.904 270.741 584.156 271.025 584.327 271.381C584.497 271.733 584.582 272.121 584.582 272.545V273.159C584.582 273.583 584.495 273.973 584.321 274.33C584.151 274.682 583.897 274.966 583.56 275.182C583.226 275.394 582.817 275.5 582.332 275.5C581.84 275.5 581.425 275.394 581.088 275.182C580.751 274.966 580.495 274.682 580.321 274.33C580.147 273.973 580.06 273.583 580.06 273.159ZM581.219 272.545V273.159C581.219 273.511 581.302 273.828 581.469 274.108C581.635 274.384 581.923 274.523 582.332 274.523C582.73 274.523 583.01 274.384 583.173 274.108C583.34 273.828 583.423 273.511 583.423 273.159V272.545C583.423 272.193 583.344 271.879 583.185 271.602C583.026 271.322 582.741 271.182 582.332 271.182C581.935 271.182 581.649 271.322 581.474 271.602C581.304 271.879 581.219 272.193 581.219 272.545ZM580.491 282L588.491 270.364H589.787L581.787 282H580.491Z" fill="white"/>
</svg>
